<svg xmlns="http://www.w3.org/2000/svg" width="1024" height="1024" viewBox="0 0 1024 1024">
<rect width="1024" height="1024" fill="#111"/>
<g fill="#22c55e" stroke="none">
<path d="M371.2 139.52 l0 26.88 16.64 0 16.64 0 0 100.1 0 100.35 -22.78 39.94 c-12.54 22.02 -51.2 90.11 -86.02 151.3 -34.82 61.18 -80.13 141.31 -101.12 177.92 -55.55 97.79 -52.48 90.88 -52.48 116.48 0 16.9 1.28 24.32 5.63 33.79 7.68 16.9 26.62 36.1 42.5 43.26 l13.31 6.14 304.64 0 c350.21 0 321.02 2.05 347.14 -24.06 24.58 -24.83 31.74 -57.09 19.46 -87.3 -3.33 -7.68 -15.87 -31.49 -27.9 -52.48 -22.53 -39.42 -70.14 -123.14 -130.05 -229.12 -18.94 -33.02 -48.9 -86.02 -67.07 -117.5 l-32.77 -57.6 0 -100.61 0 -100.61 16.64 0 16.64 0 0 -26.88 0 -26.88 -139.52 0 -139.52 0 0 26.88z m192 138.24 l1.28 110.08 38.14 66.56 c20.99 36.61 47.36 83.2 59.14 103.68 11.52 20.48 52.74 93.18 91.65 161.54 73.98 130.05 75.26 132.61 67.07 147.97 -8.45 16.38 8.45 15.62 -311.04 15.62 -319.23 0 -298.5 1.02 -308.22 -15.36 -8.96 -15.36 -6.91 -21.25 37.89 -99.33 23.04 -40.45 52.48 -92.42 65.54 -115.71 40.96 -72.96 117.76 -207.36 136.7 -239.36 l18.18 -30.72 0.77 -108.29 1.02 -108.03 50.18 0.51 50.43 0.77 1.28 110.08z"/>
<path d="M478.98 518.66 c-41.98 11.26 -72.96 44.03 -79.62 84.48 -3.07 16.9 -1.79 27.14 5.38 54.02 4.61 17.15 4.86 18.94 1.02 29.44 -2.3 5.89 -4.86 12.8 -5.63 15.1 -1.54 5.12 4.1 16.38 13.57 27.65 5.63 6.91 8.19 7.94 18.94 7.94 l12.29 0 3.07 20.99 c4.61 32 3.58 30.21 19.46 30.21 l13.82 0 0 -11.52 c0 -10.5 0.51 -11.52 6.4 -11.52 5.89 0 6.4 1.02 6.4 11.52 l0 11.52 16.38 0 16.64 0 0.77 -11.01 c0.77 -9.47 1.54 -10.75 7.17 -10.75 5.63 0 6.4 1.28 7.17 10.75 l0.77 11.01 13.82 0 13.82 0 1.54 -14.85 c4.61 -36.35 3.84 -34.82 17.15 -36.35 14.08 -1.79 20.99 -7.17 29.18 -23.3 l5.89 -12.03 -4.86 -9.73 c-6.4 -12.29 -6.4 -17.92 0.26 -39.94 14.08 -45.82 -3.84 -94.21 -44.03 -120.06 -25.6 -16.38 -65.79 -22.02 -96.77 -13.57z m3.84 127.49 c17.41 17.41 8.19 41.47 -17.41 46.34 -17.41 3.33 -32.77 -9.98 -32.77 -28.16 0.26 -16.9 11.26 -26.62 30.46 -26.88 9.22 0 12.54 1.54 19.71 8.7z m98.05 -2.05 c15.62 13.06 12.54 36.86 -6.14 45.57 -23.55 11.26 -49.92 -9.73 -41.98 -33.54 5.89 -18.18 32.77 -25.09 48.13 -12.03z m-57.6 65.54 c7.68 14.08 7.68 14.85 3.33 19.2 -3.58 3.84 -5.38 4.1 -9.47 1.28 -3.84 -2.3 -6.66 -2.56 -10.5 -0.26 -7.17 3.58 -12.54 1.28 -12.54 -5.89 0 -7.42 14.59 -30.98 18.43 -29.7 1.28 0.51 6.14 7.42 10.75 15.36z"/>
</g>
</svg>
